<?xml version="1.0" standalone="no"?>
<!DOCTYPE svg PUBLIC "-//W3C//DTD SVG 20010904//EN"
 "http://www.w3.org/TR/2001/REC-SVG-20010904/DTD/svg10.dtd">
<svg version="1.0" xmlns="http://www.w3.org/2000/svg"
 width="512.000000pt" height="512.000000pt" viewBox="0 0 512.000000 512.000000"
 preserveAspectRatio="xMidYMid meet">
<metadata>
Created by potrace 1.14, written by Peter Selinger 2001-2017
</metadata>
<g transform="translate(0.000000,512.000000) scale(0.100000,-0.100000)"
fill="#000000" stroke="none">
<path d="M1524 5027 c-53 -20 -100 -58 -130 -106 l-29 -46 -3 -769 c-3 -860
-4 -841 64 -908 72 -73 70 -72 449 -78 l339 -5 63 -170 c34 -93 76 -208 92
-255 71 -199 122 -334 132 -346 15 -19 73 -28 96 -16 22 12 48 67 103 222 22
63 43 122 47 130 3 8 7 20 9 25 1 6 19 55 40 110 20 55 51 142 70 192 18 51
35 97 39 103 4 6 121 10 324 10 377 0 395 3 464 80 26 28 49 67 56 92 9 32 11
241 9 808 -3 855 2 797 -75 873 -70 70 -16 67 -1127 66 -740 0 -1009 -4 -1032
-12z"/>
<path d="M255 2473 c-64 -15 -139 -90 -163 -162 -9 -24 -12 -224 -12 -706 0
-759 -2 -741 72 -814 67 -66 96 -71 429 -71 158 0 289 -3 291 -7 2 -5 46 -46
98 -93 52 -46 115 -103 139 -125 24 -22 52 -47 61 -55 9 -8 56 -51 106 -95
100 -90 160 -144 219 -199 74 -69 117 -80 161 -39 30 28 30 50 0 177 -14 55
-39 159 -56 231 -18 72 -33 138 -35 148 -2 10 -7 27 -10 38 -6 18 0 19 122 20
169 1 222 22 284 111 l34 51 3 690 c3 782 5 762 -70 835 -75 74 -46 72 -897
71 -416 -1 -765 -3 -776 -6z"/>
<path d="M3287 2468 c-20 -6 -59 -30 -86 -54 -84 -76 -81 -42 -81 -812 0 -492
3 -685 12 -714 6 -22 32 -62 56 -89 57 -64 107 -79 257 -79 61 0 114 -2 117
-5 2 -3 -17 -96 -44 -208 -83 -345 -85 -354 -67 -385 32 -58 90 -52 165 16 22
20 81 73 130 117 49 44 94 85 100 90 6 6 51 46 100 91 49 44 138 125 199 180
l109 99 311 5 c327 6 323 5 386 55 14 11 39 40 55 64 l29 45 3 689 c3 781 5
760 -69 835 -74 74 -46 72 -893 71 -464 -1 -765 -5 -789 -11z"/>
</g>
</svg>
